<?xml version="1.0" encoding="UTF-8"?>
<svg xmlns="http://www.w3.org/2000/svg" xmlns:xlink="http://www.w3.org/1999/xlink" width="70px" height="21px" viewBox="0 0 69 21" version="1.1">
<g id="surface1">
<path style=" stroke:none;fill-rule:nonzero;fill:rgb(65.098039%,65.882353%,67.058824%);fill-opacity:1;" d="M 8.40625 4.703125 C 13.554688 4.703125 16.859375 8.453125 16.859375 12.851562 C 16.859375 17.148438 13.703125 21 8.40625 21 C 3.253906 21.050781 0 17.195312 0 12.898438 C 0 8.453125 3.351562 4.703125 8.40625 4.703125 Z M 8.40625 18.972656 C 11.902344 18.972656 14.527344 16.40625 14.527344 12.898438 C 14.527344 9.394531 11.953125 6.824219 8.40625 6.824219 C 4.90625 6.824219 2.332031 9.394531 2.332031 12.898438 C 2.332031 16.355469 4.90625 18.972656 8.40625 18.972656 Z M 23.628906 5.015625 C 26.808594 5.015625 28.8125 6.71875 28.8125 9.394531 C 28.8125 11.195312 27.886719 12.558594 26.171875 13.238281 C 27.589844 14.164062 28.472656 15.625 29.695312 17.570312 C 30.378906 18.640625 30.769531 19.175781 31.847656 20.6875 L 29.15625 20.6875 L 27.054688 17.472656 C 24.949219 14.261719 24.023438 13.871094 22.847656 13.871094 L 21.917969 13.871094 L 21.917969 20.6875 L 19.667969 20.6875 L 19.667969 5.015625 Z M 21.917969 11.828125 L 23.386719 11.828125 C 25.832031 11.828125 26.515625 10.5625 26.46875 9.296875 C 26.46875 7.835938 25.585938 6.914062 23.386719 6.914062 L 21.917969 6.914062 Z M 45.75 8.492188 C 43.820312 7.359375 42.179688 6.820312 40.390625 6.820312 C 36.820312 6.820312 34.164062 9.378906 34.164062 12.875 C 34.164062 16.421875 36.722656 18.882812 40.441406 18.882812 C 42.179688 18.882812 44.109375 18.242188 45.894531 17.109375 L 45.894531 19.621094 C 44.351562 20.457031 42.710938 21 40.246094 21 C 34.40625 21 31.847656 16.421875 31.847656 13.074219 C 31.847656 8.246094 35.417969 4.703125 40.390625 4.703125 C 41.984375 4.703125 43.625 5.09375 45.75 5.980469 Z M 45.75 8.492188 "/>
<path style=" stroke:none;fill-rule:nonzero;fill:rgb(64.705882%,80.392157%,22.352941%);fill-opacity:1;" d="M 54.636719 5.015625 L 60.683594 5.015625 C 66.4375 5.015625 69 9.152344 69 12.851562 C 69 16.890625 65.855469 20.6875 60.730469 20.6875 L 54.636719 20.6875 Z M 56.863281 18.640625 L 60.441406 18.640625 C 65.519531 18.640625 66.679688 14.75 66.679688 12.800781 C 66.679688 9.640625 64.695312 6.960938 60.34375 6.960938 L 56.910156 6.960938 L 56.910156 18.640625 Z M 56.863281 18.640625 "/>
<path style=" stroke:none;fill-rule:nonzero;fill:rgb(64.705882%,80.392157%,22.352941%);fill-opacity:1;" d="M 51.238281 20.6875 L 48.984375 20.6875 L 48.984375 4.828125 L 51.238281 4.828125 Z M 51.582031 1.476562 C 51.582031 2.316406 50.894531 2.957031 50.109375 2.957031 C 49.277344 2.957031 48.640625 2.265625 48.640625 1.476562 C 48.640625 0.691406 49.324219 0 50.109375 0 C 50.945312 0 51.582031 0.691406 51.582031 1.476562 Z M 51.582031 1.476562 "/>
</g>
</svg>
