<?xml version="1.0" encoding="UTF-8"?>
<svg xmlns="http://www.w3.org/2000/svg" xmlns:xlink="http://www.w3.org/1999/xlink" width="80px" height="24px" viewBox="0 0 80 24" version="1.1">
<g id="surface1">
<path style=" stroke:none;fill-rule:nonzero;fill:rgb(65.098039%,65.882353%,67.058824%);fill-opacity:1;" d="M 10.351562 5.371094 C 16.203125 5.371094 19.957031 9.664062 19.957031 14.6875 C 19.957031 19.597656 16.367188 24 10.351562 24 C 4.5 24.054688 0.800781 19.652344 0.800781 14.742188 C 0.800781 9.664062 4.609375 5.371094 10.351562 5.371094 Z M 10.351562 21.683594 C 14.324219 21.683594 17.304688 18.75 17.304688 14.742188 C 17.304688 10.734375 14.382812 7.800781 10.351562 7.800781 C 6.375 7.800781 3.449219 10.734375 3.449219 14.742188 C 3.449219 18.695312 6.375 21.683594 10.351562 21.683594 Z M 27.648438 5.730469 C 31.261719 5.730469 33.539062 7.679688 33.539062 10.738281 C 33.539062 12.792969 32.484375 14.351562 30.539062 15.132812 C 32.148438 16.1875 33.148438 17.855469 34.539062 20.082031 C 35.320312 21.304688 35.761719 21.917969 36.984375 23.640625 L 33.929688 23.640625 L 31.539062 19.972656 C 29.148438 16.300781 28.09375 15.851562 26.757812 15.851562 L 25.707031 15.851562 L 25.707031 23.640625 L 23.148438 23.640625 L 23.148438 5.730469 Z M 25.707031 13.519531 L 27.371094 13.519531 C 30.148438 13.519531 30.929688 12.070312 30.871094 10.625 C 30.871094 8.957031 29.871094 7.898438 27.371094 7.898438 L 25.707031 7.898438 Z M 52.785156 9.707031 C 50.589844 8.414062 48.726562 7.792969 46.695312 7.792969 C 42.632812 7.792969 39.617188 10.71875 39.617188 14.714844 C 39.617188 18.765625 42.523438 21.582031 46.75 21.582031 C 48.726562 21.582031 50.917969 20.851562 52.945312 19.554688 L 52.945312 22.425781 C 51.195312 23.382812 49.328125 24 46.53125 24 C 39.890625 24 36.984375 18.765625 36.984375 14.941406 C 36.984375 9.425781 41.042969 5.371094 46.695312 5.371094 C 48.507812 5.371094 50.367188 5.820312 52.785156 6.835938 Z M 52.785156 9.707031 "/>
<path style=" stroke:none;fill-rule:nonzero;fill:rgb(64.705882%,80.392157%,22.352941%);fill-opacity:1;" d="M 62.882812 5.730469 L 69.75 5.730469 C 76.289062 5.730469 79.199219 10.460938 79.199219 14.6875 C 79.199219 19.304688 75.628906 23.640625 69.804688 23.640625 L 62.882812 23.640625 Z M 65.410156 21.304688 L 69.476562 21.304688 C 75.242188 21.304688 76.5625 16.855469 76.5625 14.632812 C 76.5625 11.015625 74.308594 7.957031 69.367188 7.957031 L 65.460938 7.957031 L 65.460938 21.304688 Z M 65.410156 21.304688 "/>
<path style=" stroke:none;fill-rule:nonzero;fill:rgb(64.705882%,80.392157%,22.352941%);fill-opacity:1;" d="M 59.019531 23.640625 L 56.457031 23.640625 L 56.457031 5.515625 L 59.019531 5.515625 Z M 59.410156 1.6875 C 59.410156 2.648438 58.628906 3.378906 57.738281 3.378906 C 56.789062 3.378906 56.066406 2.589844 56.066406 1.6875 C 56.066406 0.789062 56.847656 0 57.738281 0 C 58.683594 0 59.410156 0.789062 59.410156 1.6875 Z M 59.410156 1.6875 "/>
</g>
</svg>
