<?xml version="1.0" encoding="UTF-8"?>
<svg xmlns="http://www.w3.org/2000/svg" xmlns:xlink="http://www.w3.org/1999/xlink" width="60px" height="18px" viewBox="0 0 60 18" version="1.1">
<g id="surface1">
<path style=" stroke:none;fill-rule:nonzero;fill:rgb(65.098039%,65.882353%,67.058824%);fill-opacity:1;" d="M 7.761719 4.027344 C 12.152344 4.027344 14.96875 7.246094 14.96875 11.015625 C 14.96875 14.699219 12.277344 18 7.761719 18 C 3.375 18.042969 0.601562 14.738281 0.601562 11.058594 C 0.601562 7.246094 3.457031 4.027344 7.761719 4.027344 Z M 7.761719 16.261719 C 10.742188 16.261719 12.980469 14.0625 12.980469 11.058594 C 12.980469 8.050781 10.785156 5.851562 7.761719 5.851562 C 4.78125 5.851562 2.585938 8.050781 2.585938 11.058594 C 2.585938 14.019531 4.78125 16.261719 7.761719 16.261719 Z M 20.738281 4.296875 C 23.445312 4.296875 25.15625 5.757812 25.15625 8.054688 C 25.15625 9.59375 24.363281 10.765625 22.90625 11.347656 C 24.113281 12.140625 24.863281 13.390625 25.90625 15.0625 C 26.488281 15.980469 26.820312 16.4375 27.738281 17.730469 L 25.445312 17.730469 L 23.65625 14.980469 C 21.863281 12.226562 21.070312 11.890625 20.070312 11.890625 L 19.28125 11.890625 L 19.28125 17.730469 L 17.363281 17.730469 L 17.363281 4.296875 Z M 19.28125 10.140625 L 20.527344 10.140625 C 22.613281 10.140625 23.195312 9.054688 23.152344 7.96875 C 23.152344 6.71875 22.402344 5.925781 20.527344 5.925781 L 19.28125 5.925781 Z M 39.589844 7.28125 C 37.941406 6.308594 36.542969 5.84375 35.019531 5.84375 C 31.976562 5.84375 29.714844 8.039062 29.714844 11.035156 C 29.714844 14.074219 31.894531 16.1875 35.0625 16.1875 C 36.542969 16.1875 38.1875 15.636719 39.710938 14.664062 L 39.710938 16.820312 C 38.394531 17.535156 36.996094 18 34.898438 18 C 29.917969 18 27.738281 14.074219 27.738281 11.207031 C 27.738281 7.070312 30.78125 4.027344 35.019531 4.027344 C 36.378906 4.027344 37.777344 4.367188 39.589844 5.128906 Z M 39.589844 7.28125 "/>
<path style=" stroke:none;fill-rule:nonzero;fill:rgb(64.705882%,80.392157%,22.352941%);fill-opacity:1;" d="M 47.160156 4.296875 L 52.3125 4.296875 C 57.214844 4.296875 59.398438 7.84375 59.398438 11.015625 C 59.398438 14.476562 56.722656 17.730469 52.351562 17.730469 L 47.160156 17.730469 Z M 49.058594 15.980469 L 52.105469 15.980469 C 56.433594 15.980469 57.421875 12.640625 57.421875 10.972656 C 57.421875 8.261719 55.730469 5.96875 52.023438 5.96875 L 49.097656 5.96875 L 49.097656 15.980469 Z M 49.058594 15.980469 "/>
<path style=" stroke:none;fill-rule:nonzero;fill:rgb(64.705882%,80.392157%,22.352941%);fill-opacity:1;" d="M 44.265625 17.730469 L 42.34375 17.730469 L 42.34375 4.136719 L 44.265625 4.136719 Z M 44.558594 1.265625 C 44.558594 1.984375 43.972656 2.535156 43.304688 2.535156 C 42.59375 2.535156 42.050781 1.941406 42.050781 1.265625 C 42.050781 0.589844 42.636719 0 43.304688 0 C 44.011719 0 44.558594 0.589844 44.558594 1.265625 Z M 44.558594 1.265625 "/>
</g>
</svg>
