<?xml version="1.0" encoding="UTF-8"?>
<svg xmlns="http://www.w3.org/2000/svg" xmlns:xlink="http://www.w3.org/1999/xlink" width="50px" height="15px" viewBox="0 0 50 15" version="1.1">
<g id="surface1">
<path style=" stroke:none;fill-rule:nonzero;fill:rgb(65.098039%,65.882353%,67.058824%);fill-opacity:1;" d="M 6.46875 3.355469 C 10.128906 3.355469 12.472656 6.039062 12.472656 9.179688 C 12.472656 12.25 10.230469 15 6.46875 15 C 2.8125 15.035156 0.5 12.28125 0.5 9.214844 C 0.5 6.039062 2.878906 3.355469 6.46875 3.355469 Z M 6.46875 13.550781 C 8.953125 13.550781 10.816406 11.71875 10.816406 9.214844 C 10.816406 6.707031 8.988281 4.875 6.46875 4.875 C 3.984375 4.875 2.15625 6.707031 2.15625 9.214844 C 2.15625 11.683594 3.984375 13.550781 6.46875 13.550781 Z M 17.28125 3.582031 C 19.539062 3.582031 20.964844 4.796875 20.964844 6.710938 C 20.964844 7.996094 20.300781 8.972656 19.089844 9.457031 C 20.09375 10.117188 20.71875 11.160156 21.589844 12.550781 C 22.074219 13.316406 22.351562 13.699219 23.113281 14.777344 L 21.203125 14.777344 L 19.714844 12.484375 C 18.21875 10.1875 17.558594 9.910156 16.726562 9.910156 L 16.066406 9.910156 L 16.066406 14.777344 L 14.46875 14.777344 L 14.46875 3.582031 Z M 16.066406 8.449219 L 17.105469 8.449219 C 18.84375 8.449219 19.328125 7.546875 19.292969 6.640625 C 19.292969 5.597656 18.667969 4.9375 17.105469 4.9375 L 16.066406 4.9375 Z M 32.992188 6.066406 C 31.617188 5.257812 30.453125 4.871094 29.183594 4.871094 C 26.648438 4.871094 24.761719 6.699219 24.761719 9.195312 C 24.761719 11.730469 26.578125 13.488281 29.21875 13.488281 C 30.453125 13.488281 31.824219 13.03125 33.09375 12.21875 L 33.09375 14.015625 C 31.996094 14.613281 30.832031 15 29.082031 15 C 24.933594 15 23.113281 11.730469 23.113281 9.339844 C 23.113281 5.890625 25.652344 3.355469 29.183594 3.355469 C 30.316406 3.355469 31.480469 3.640625 32.992188 4.273438 Z M 32.992188 6.066406 "/>
<path style=" stroke:none;fill-rule:nonzero;fill:rgb(64.705882%,80.392157%,22.352941%);fill-opacity:1;" d="M 39.300781 3.582031 L 43.59375 3.582031 C 47.679688 3.582031 49.5 6.535156 49.5 9.179688 C 49.5 12.0625 47.269531 14.777344 43.625 14.777344 L 39.300781 14.777344 Z M 40.882812 13.316406 L 43.421875 13.316406 C 47.027344 13.316406 47.851562 10.535156 47.851562 9.144531 C 47.851562 6.886719 46.441406 4.972656 43.351562 4.972656 L 40.914062 4.972656 L 40.914062 13.316406 Z M 40.882812 13.316406 "/>
<path style=" stroke:none;fill-rule:nonzero;fill:rgb(64.705882%,80.392157%,22.352941%);fill-opacity:1;" d="M 36.886719 14.777344 L 35.285156 14.777344 L 35.285156 3.449219 L 36.886719 3.449219 Z M 37.132812 1.054688 C 37.132812 1.652344 36.644531 2.113281 36.085938 2.113281 C 35.496094 2.113281 35.042969 1.617188 35.042969 1.054688 C 35.042969 0.492188 35.53125 0 36.085938 0 C 36.675781 0 37.132812 0.492188 37.132812 1.054688 Z M 37.132812 1.054688 "/>
</g>
</svg>
